<mxfile host="app.diagrams.net" modified="2022-11-29T10:28:20.209Z" agent="5.0 (Windows NT 10.0; Win64; x64) AppleWebKit/537.36 (KHTML, like Gecko) Chrome/107.0.0.0 Safari/537.36" etag="uTo18srnLT0WmJmAvmfo" version="20.6.0" type="github">
  <diagram id="VsgBfveyjFz6Jx_ch1yv" name="Page-1">
    <mxGraphModel dx="2169" dy="1169" grid="1" gridSize="11" guides="1" tooltips="1" connect="1" arrows="1" fold="1" page="1" pageScale="1" pageWidth="1169" pageHeight="1654" math="0" shadow="0">
      <root>
        <mxCell id="0" />
        <mxCell id="1" parent="0" />
        <mxCell id="6fTI-SqCHsq5oNUSL6ju-106" value="" style="group" vertex="1" connectable="0" parent="1">
          <mxGeometry x="55" y="572" width="610" height="325" as="geometry" />
        </mxCell>
        <mxCell id="6fTI-SqCHsq5oNUSL6ju-132" style="edgeStyle=none;rounded=0;orthogonalLoop=1;jettySize=auto;html=1;exitX=0.75;exitY=1;exitDx=0;exitDy=0;entryX=0.5;entryY=0;entryDx=0;entryDy=0;labelBackgroundColor=none;strokeColor=#000000;fontSize=12;startFill=1;endArrow=none;endFill=0;" edge="1" parent="6fTI-SqCHsq5oNUSL6ju-106" source="6fTI-SqCHsq5oNUSL6ju-8" target="6fTI-SqCHsq5oNUSL6ju-10">
          <mxGeometry relative="1" as="geometry" />
        </mxCell>
        <mxCell id="6fTI-SqCHsq5oNUSL6ju-8" value="Book" style="rounded=0;whiteSpace=wrap;html=1;" vertex="1" parent="6fTI-SqCHsq5oNUSL6ju-106">
          <mxGeometry x="130" y="135" width="105" height="40" as="geometry" />
        </mxCell>
        <mxCell id="6fTI-SqCHsq5oNUSL6ju-9" value="&lt;u&gt;BID&lt;/u&gt;" style="ellipse;whiteSpace=wrap;html=1;" vertex="1" parent="6fTI-SqCHsq5oNUSL6ju-106">
          <mxGeometry x="90" y="55" width="70" height="40" as="geometry" />
        </mxCell>
        <mxCell id="6fTI-SqCHsq5oNUSL6ju-4" style="rounded=0;orthogonalLoop=1;jettySize=auto;html=1;exitX=0.25;exitY=0;exitDx=0;exitDy=0;entryX=0.5;entryY=1;entryDx=0;entryDy=0;fontSize=10;endArrow=none;endFill=0;" edge="1" parent="6fTI-SqCHsq5oNUSL6ju-106" source="6fTI-SqCHsq5oNUSL6ju-8" target="6fTI-SqCHsq5oNUSL6ju-9">
          <mxGeometry relative="1" as="geometry" />
        </mxCell>
        <mxCell id="6fTI-SqCHsq5oNUSL6ju-10" value="Title" style="ellipse;whiteSpace=wrap;html=1;" vertex="1" parent="6fTI-SqCHsq5oNUSL6ju-106">
          <mxGeometry x="235" y="235" width="70" height="40" as="geometry" />
        </mxCell>
        <mxCell id="6fTI-SqCHsq5oNUSL6ju-19" value="Quantity" style="ellipse;whiteSpace=wrap;html=1;rounded=0;" vertex="1" parent="6fTI-SqCHsq5oNUSL6ju-106">
          <mxGeometry x="5" y="95" width="80" height="45" as="geometry" />
        </mxCell>
        <mxCell id="6fTI-SqCHsq5oNUSL6ju-6" style="rounded=0;orthogonalLoop=1;jettySize=auto;html=1;exitX=0;exitY=0.25;exitDx=0;exitDy=0;entryX=1;entryY=0.5;entryDx=0;entryDy=0;fontSize=10;endArrow=none;endFill=0;" edge="1" parent="6fTI-SqCHsq5oNUSL6ju-106" source="6fTI-SqCHsq5oNUSL6ju-8" target="6fTI-SqCHsq5oNUSL6ju-19">
          <mxGeometry relative="1" as="geometry" />
        </mxCell>
        <mxCell id="6fTI-SqCHsq5oNUSL6ju-25" style="edgeStyle=none;rounded=0;orthogonalLoop=1;jettySize=auto;html=1;exitX=0.5;exitY=1;exitDx=0;exitDy=0;fontSize=12;startFill=1;endArrow=none;endFill=0;" edge="1" parent="6fTI-SqCHsq5oNUSL6ju-106" source="6fTI-SqCHsq5oNUSL6ju-23">
          <mxGeometry relative="1" as="geometry">
            <mxPoint x="42.11145618000171" y="207.11145618000182" as="targetPoint" />
          </mxGeometry>
        </mxCell>
        <mxCell id="6fTI-SqCHsq5oNUSL6ju-23" value="&lt;font style=&quot;font-size: 12px;&quot;&gt;Price&lt;/font&gt;" style="ellipse;whiteSpace=wrap;html=1;shadow=0;sketch=0;fontSize=10;" vertex="1" parent="6fTI-SqCHsq5oNUSL6ju-106">
          <mxGeometry y="165" width="80" height="40" as="geometry" />
        </mxCell>
        <mxCell id="6fTI-SqCHsq5oNUSL6ju-7" style="edgeStyle=none;rounded=0;orthogonalLoop=1;jettySize=auto;html=1;exitX=0;exitY=0.75;exitDx=0;exitDy=0;entryX=1;entryY=0;entryDx=0;entryDy=0;fontSize=12;startFill=1;endArrow=none;endFill=0;" edge="1" parent="6fTI-SqCHsq5oNUSL6ju-106" source="6fTI-SqCHsq5oNUSL6ju-8" target="6fTI-SqCHsq5oNUSL6ju-23">
          <mxGeometry relative="1" as="geometry" />
        </mxCell>
        <mxCell id="6fTI-SqCHsq5oNUSL6ju-26" value="&lt;font style=&quot;font-size: 10px;&quot;&gt;WRITTEN&lt;br&gt;_BY&lt;/font&gt;" style="rhombus;whiteSpace=wrap;html=1;shadow=0;sketch=0;fontSize=12;" vertex="1" parent="6fTI-SqCHsq5oNUSL6ju-106">
          <mxGeometry x="290" y="115" width="80" height="80" as="geometry" />
        </mxCell>
        <mxCell id="6fTI-SqCHsq5oNUSL6ju-27" value="N" style="edgeStyle=none;rounded=0;orthogonalLoop=1;jettySize=auto;html=1;exitX=1;exitY=0.5;exitDx=0;exitDy=0;entryX=0;entryY=0.5;entryDx=0;entryDy=0;fontSize=12;startFill=1;endArrow=none;endFill=0;shape=link;" edge="1" parent="6fTI-SqCHsq5oNUSL6ju-106" source="6fTI-SqCHsq5oNUSL6ju-8" target="6fTI-SqCHsq5oNUSL6ju-26">
          <mxGeometry x="-0.0909" y="10" relative="1" as="geometry">
            <mxPoint as="offset" />
          </mxGeometry>
        </mxCell>
        <mxCell id="6fTI-SqCHsq5oNUSL6ju-32" value="Author" style="rounded=0;whiteSpace=wrap;html=1;" vertex="1" parent="6fTI-SqCHsq5oNUSL6ju-106">
          <mxGeometry x="440" y="135" width="105" height="40" as="geometry" />
        </mxCell>
        <mxCell id="6fTI-SqCHsq5oNUSL6ju-37" value="M" style="edgeStyle=none;rounded=0;orthogonalLoop=1;jettySize=auto;html=1;exitX=1;exitY=0.5;exitDx=0;exitDy=0;entryX=0;entryY=0.5;entryDx=0;entryDy=0;fontSize=12;startFill=1;endArrow=none;endFill=0;" edge="1" parent="6fTI-SqCHsq5oNUSL6ju-106" source="6fTI-SqCHsq5oNUSL6ju-26" target="6fTI-SqCHsq5oNUSL6ju-32">
          <mxGeometry x="-0.1429" y="10" relative="1" as="geometry">
            <mxPoint as="offset" />
          </mxGeometry>
        </mxCell>
        <mxCell id="6fTI-SqCHsq5oNUSL6ju-39" style="rounded=0;orthogonalLoop=1;jettySize=auto;html=1;exitX=0.25;exitY=0;exitDx=0;exitDy=0;entryX=0.5;entryY=1;entryDx=0;entryDy=0;fontSize=10;endArrow=none;endFill=0;" edge="1" parent="6fTI-SqCHsq5oNUSL6ju-106" target="6fTI-SqCHsq5oNUSL6ju-41">
          <mxGeometry relative="1" as="geometry">
            <mxPoint x="466.25" y="135" as="sourcePoint" />
          </mxGeometry>
        </mxCell>
        <mxCell id="6fTI-SqCHsq5oNUSL6ju-40" style="rounded=0;orthogonalLoop=1;jettySize=auto;html=1;exitX=0.75;exitY=0;exitDx=0;exitDy=0;entryX=0.5;entryY=1;entryDx=0;entryDy=0;fontSize=10;endArrow=none;endFill=0;" edge="1" parent="6fTI-SqCHsq5oNUSL6ju-106" target="6fTI-SqCHsq5oNUSL6ju-42">
          <mxGeometry relative="1" as="geometry">
            <mxPoint x="518.75" y="135" as="sourcePoint" />
          </mxGeometry>
        </mxCell>
        <mxCell id="6fTI-SqCHsq5oNUSL6ju-41" value="&lt;u&gt;AID&lt;/u&gt;" style="ellipse;whiteSpace=wrap;html=1;" vertex="1" parent="6fTI-SqCHsq5oNUSL6ju-106">
          <mxGeometry x="400" y="55" width="70" height="40" as="geometry" />
        </mxCell>
        <mxCell id="6fTI-SqCHsq5oNUSL6ju-42" value="Full_Name" style="ellipse;whiteSpace=wrap;html=1;" vertex="1" parent="6fTI-SqCHsq5oNUSL6ju-106">
          <mxGeometry x="500" y="55" width="70" height="40" as="geometry" />
        </mxCell>
        <mxCell id="6fTI-SqCHsq5oNUSL6ju-43" value="Name" style="ellipse;whiteSpace=wrap;html=1;shadow=0;sketch=0;fontSize=12;" vertex="1" parent="6fTI-SqCHsq5oNUSL6ju-106">
          <mxGeometry x="455" width="70" height="40" as="geometry" />
        </mxCell>
        <mxCell id="6fTI-SqCHsq5oNUSL6ju-44" style="edgeStyle=none;rounded=0;orthogonalLoop=1;jettySize=auto;html=1;exitX=0;exitY=0;exitDx=0;exitDy=0;fontSize=12;startFill=1;endArrow=none;endFill=0;" edge="1" parent="6fTI-SqCHsq5oNUSL6ju-106" source="6fTI-SqCHsq5oNUSL6ju-42" target="6fTI-SqCHsq5oNUSL6ju-43">
          <mxGeometry relative="1" as="geometry" />
        </mxCell>
        <mxCell id="6fTI-SqCHsq5oNUSL6ju-45" value="Surname" style="ellipse;whiteSpace=wrap;html=1;shadow=0;sketch=0;fontSize=12;" vertex="1" parent="6fTI-SqCHsq5oNUSL6ju-106">
          <mxGeometry x="540" width="70" height="40" as="geometry" />
        </mxCell>
        <mxCell id="6fTI-SqCHsq5oNUSL6ju-46" style="edgeStyle=none;rounded=0;orthogonalLoop=1;jettySize=auto;html=1;exitX=1;exitY=0;exitDx=0;exitDy=0;fontSize=12;startFill=1;endArrow=none;endFill=0;" edge="1" parent="6fTI-SqCHsq5oNUSL6ju-106" source="6fTI-SqCHsq5oNUSL6ju-42" target="6fTI-SqCHsq5oNUSL6ju-45">
          <mxGeometry relative="1" as="geometry" />
        </mxCell>
        <mxCell id="6fTI-SqCHsq5oNUSL6ju-49" value="Email" style="ellipse;whiteSpace=wrap;html=1;rounded=0;" vertex="1" parent="6fTI-SqCHsq5oNUSL6ju-106">
          <mxGeometry x="453.75" y="225" width="77.5" height="40" as="geometry" />
        </mxCell>
        <mxCell id="6fTI-SqCHsq5oNUSL6ju-50" value="" style="edgeStyle=none;rounded=0;orthogonalLoop=1;jettySize=auto;html=1;fontSize=12;startFill=1;endArrow=none;endFill=0;" edge="1" parent="6fTI-SqCHsq5oNUSL6ju-106" source="6fTI-SqCHsq5oNUSL6ju-32" target="6fTI-SqCHsq5oNUSL6ju-49">
          <mxGeometry relative="1" as="geometry" />
        </mxCell>
        <mxCell id="6fTI-SqCHsq5oNUSL6ju-55" value="&lt;font style=&quot;font-size: 10px;&quot;&gt;PUBLISHED&lt;br&gt;_BY&lt;/font&gt;" style="rhombus;whiteSpace=wrap;html=1;shadow=0;sketch=0;fontSize=12;" vertex="1" parent="6fTI-SqCHsq5oNUSL6ju-106">
          <mxGeometry x="142.5" y="245" width="80" height="80" as="geometry" />
        </mxCell>
        <mxCell id="6fTI-SqCHsq5oNUSL6ju-57" value="N" style="edgeStyle=none;shape=link;rounded=0;orthogonalLoop=1;jettySize=auto;html=1;exitX=0.5;exitY=1;exitDx=0;exitDy=0;entryX=0.5;entryY=0;entryDx=0;entryDy=0;fontSize=10;startFill=1;endArrow=none;endFill=0;" edge="1" parent="6fTI-SqCHsq5oNUSL6ju-106" source="6fTI-SqCHsq5oNUSL6ju-8" target="6fTI-SqCHsq5oNUSL6ju-55">
          <mxGeometry x="-0.0286" y="16" relative="1" as="geometry">
            <mxPoint as="offset" />
          </mxGeometry>
        </mxCell>
        <mxCell id="6fTI-SqCHsq5oNUSL6ju-61" value="&lt;font style=&quot;font-size: 12px;&quot;&gt;ISBN&lt;/font&gt;" style="ellipse;whiteSpace=wrap;html=1;shadow=0;sketch=0;fontSize=10;" vertex="1" parent="6fTI-SqCHsq5oNUSL6ju-106">
          <mxGeometry x="65" y="215" width="80" height="40" as="geometry" />
        </mxCell>
        <mxCell id="6fTI-SqCHsq5oNUSL6ju-62" style="edgeStyle=none;rounded=0;orthogonalLoop=1;jettySize=auto;html=1;exitX=0.25;exitY=1;exitDx=0;exitDy=0;entryX=0.5;entryY=0;entryDx=0;entryDy=0;fontSize=10;startFill=1;endArrow=none;endFill=0;" edge="1" parent="6fTI-SqCHsq5oNUSL6ju-106" source="6fTI-SqCHsq5oNUSL6ju-8" target="6fTI-SqCHsq5oNUSL6ju-61">
          <mxGeometry relative="1" as="geometry" />
        </mxCell>
        <mxCell id="6fTI-SqCHsq5oNUSL6ju-129" value="STORED&lt;br&gt;_AT" style="rhombus;whiteSpace=wrap;html=1;rounded=0;" vertex="1" parent="6fTI-SqCHsq5oNUSL6ju-106">
          <mxGeometry x="145" y="-25" width="80" height="80" as="geometry" />
        </mxCell>
        <mxCell id="6fTI-SqCHsq5oNUSL6ju-130" value="N" style="edgeStyle=none;rounded=0;orthogonalLoop=1;jettySize=auto;html=1;fontSize=12;startFill=1;endArrow=none;endFill=0;shape=link;exitX=0.5;exitY=0;exitDx=0;exitDy=0;" edge="1" parent="6fTI-SqCHsq5oNUSL6ju-106" source="6fTI-SqCHsq5oNUSL6ju-8" target="6fTI-SqCHsq5oNUSL6ju-129">
          <mxGeometry x="-0.0476" y="12" relative="1" as="geometry">
            <mxPoint x="187" y="132" as="sourcePoint" />
            <mxPoint as="offset" />
          </mxGeometry>
        </mxCell>
        <mxCell id="6fTI-SqCHsq5oNUSL6ju-133" value="" style="group" vertex="1" connectable="0" parent="1">
          <mxGeometry x="495" y="44" width="490" height="250" as="geometry" />
        </mxCell>
        <mxCell id="Fxmti2o_5BGem4VC5T3a-1" value="Customer" style="rounded=0;whiteSpace=wrap;html=1;" parent="6fTI-SqCHsq5oNUSL6ju-133" vertex="1">
          <mxGeometry x="245" y="80" width="105" height="40" as="geometry" />
        </mxCell>
        <mxCell id="Fxmti2o_5BGem4VC5T3a-2" value="&lt;u&gt;CID&lt;/u&gt;" style="ellipse;whiteSpace=wrap;html=1;" parent="6fTI-SqCHsq5oNUSL6ju-133" vertex="1">
          <mxGeometry x="205" width="70" height="40" as="geometry" />
        </mxCell>
        <mxCell id="Fxmti2o_5BGem4VC5T3a-18" style="rounded=0;orthogonalLoop=1;jettySize=auto;html=1;exitX=0.25;exitY=0;exitDx=0;exitDy=0;entryX=0.5;entryY=1;entryDx=0;entryDy=0;fontSize=10;endArrow=none;endFill=0;" parent="6fTI-SqCHsq5oNUSL6ju-133" source="Fxmti2o_5BGem4VC5T3a-1" target="Fxmti2o_5BGem4VC5T3a-2" edge="1">
          <mxGeometry relative="1" as="geometry" />
        </mxCell>
        <mxCell id="Fxmti2o_5BGem4VC5T3a-15" value="" style="group" parent="6fTI-SqCHsq5oNUSL6ju-133" vertex="1" connectable="0">
          <mxGeometry x="160" y="200" width="80" height="50" as="geometry" />
        </mxCell>
        <mxCell id="Fxmti2o_5BGem4VC5T3a-8" value="Phone" style="ellipse;whiteSpace=wrap;html=1;perimeterSpacing=0;shadow=0;perimeter=none;" parent="Fxmti2o_5BGem4VC5T3a-15" vertex="1">
          <mxGeometry width="80" height="50" as="geometry" />
        </mxCell>
        <mxCell id="Fxmti2o_5BGem4VC5T3a-6" value="Phone" style="ellipse;whiteSpace=wrap;html=1;perimeterSpacing=0;shadow=0;perimeter=none;" parent="Fxmti2o_5BGem4VC5T3a-15" vertex="1">
          <mxGeometry x="5" y="5" width="70" height="40" as="geometry" />
        </mxCell>
        <mxCell id="Fxmti2o_5BGem4VC5T3a-17" style="rounded=0;orthogonalLoop=1;jettySize=auto;html=1;exitX=0.25;exitY=1;exitDx=0;exitDy=0;entryX=0.527;entryY=-0.011;entryDx=0;entryDy=0;entryPerimeter=0;fontSize=10;endArrow=none;endFill=0;" parent="6fTI-SqCHsq5oNUSL6ju-133" source="Fxmti2o_5BGem4VC5T3a-1" target="Fxmti2o_5BGem4VC5T3a-8" edge="1">
          <mxGeometry relative="1" as="geometry" />
        </mxCell>
        <mxCell id="Fxmti2o_5BGem4VC5T3a-20" value="Address" style="ellipse;whiteSpace=wrap;html=1;rounded=0;" parent="6fTI-SqCHsq5oNUSL6ju-133" vertex="1">
          <mxGeometry x="125" y="50" width="80" height="45" as="geometry" />
        </mxCell>
        <mxCell id="Fxmti2o_5BGem4VC5T3a-35" style="rounded=0;orthogonalLoop=1;jettySize=auto;html=1;exitX=0;exitY=0.25;exitDx=0;exitDy=0;entryX=1;entryY=0.5;entryDx=0;entryDy=0;fontSize=10;endArrow=none;endFill=0;" parent="6fTI-SqCHsq5oNUSL6ju-133" source="Fxmti2o_5BGem4VC5T3a-1" target="Fxmti2o_5BGem4VC5T3a-20" edge="1">
          <mxGeometry relative="1" as="geometry" />
        </mxCell>
        <mxCell id="Fxmti2o_5BGem4VC5T3a-23" value="City" style="ellipse;whiteSpace=wrap;html=1;rounded=0;" parent="6fTI-SqCHsq5oNUSL6ju-133" vertex="1">
          <mxGeometry width="80" height="37.5" as="geometry" />
        </mxCell>
        <mxCell id="Fxmti2o_5BGem4VC5T3a-24" value="" style="rounded=0;orthogonalLoop=1;jettySize=auto;html=1;fontSize=10;endArrow=none;endFill=0;" parent="6fTI-SqCHsq5oNUSL6ju-133" source="Fxmti2o_5BGem4VC5T3a-20" target="Fxmti2o_5BGem4VC5T3a-23" edge="1">
          <mxGeometry relative="1" as="geometry" />
        </mxCell>
        <mxCell id="Fxmti2o_5BGem4VC5T3a-25" value="Number" style="ellipse;whiteSpace=wrap;html=1;rounded=0;" parent="6fTI-SqCHsq5oNUSL6ju-133" vertex="1">
          <mxGeometry y="60" width="80" height="45" as="geometry" />
        </mxCell>
        <mxCell id="Fxmti2o_5BGem4VC5T3a-26" value="" style="rounded=0;orthogonalLoop=1;jettySize=auto;html=1;fontSize=10;endArrow=none;endFill=0;" parent="6fTI-SqCHsq5oNUSL6ju-133" source="Fxmti2o_5BGem4VC5T3a-20" target="Fxmti2o_5BGem4VC5T3a-25" edge="1">
          <mxGeometry relative="1" as="geometry" />
        </mxCell>
        <mxCell id="Fxmti2o_5BGem4VC5T3a-31" value="Postal_Code" style="ellipse;whiteSpace=wrap;html=1;rounded=0;" parent="6fTI-SqCHsq5oNUSL6ju-133" vertex="1">
          <mxGeometry y="125" width="80" height="45" as="geometry" />
        </mxCell>
        <mxCell id="Fxmti2o_5BGem4VC5T3a-32" style="rounded=0;orthogonalLoop=1;jettySize=auto;html=1;exitX=0;exitY=1;exitDx=0;exitDy=0;entryX=0.5;entryY=0;entryDx=0;entryDy=0;fontSize=10;endArrow=none;endFill=0;" parent="6fTI-SqCHsq5oNUSL6ju-133" source="Fxmti2o_5BGem4VC5T3a-20" target="Fxmti2o_5BGem4VC5T3a-31" edge="1">
          <mxGeometry relative="1" as="geometry" />
        </mxCell>
        <mxCell id="Fxmti2o_5BGem4VC5T3a-39" value="&lt;font style=&quot;font-size: 12px;&quot;&gt;Email&lt;/font&gt;" style="ellipse;whiteSpace=wrap;html=1;shadow=0;sketch=0;fontSize=10;" parent="6fTI-SqCHsq5oNUSL6ju-133" vertex="1">
          <mxGeometry x="125" y="120" width="80" height="40" as="geometry" />
        </mxCell>
        <mxCell id="Fxmti2o_5BGem4VC5T3a-43" style="edgeStyle=none;rounded=0;orthogonalLoop=1;jettySize=auto;html=1;exitX=0;exitY=0.75;exitDx=0;exitDy=0;entryX=1;entryY=0;entryDx=0;entryDy=0;fontSize=12;startFill=1;endArrow=none;endFill=0;" parent="6fTI-SqCHsq5oNUSL6ju-133" source="Fxmti2o_5BGem4VC5T3a-1" target="Fxmti2o_5BGem4VC5T3a-39" edge="1">
          <mxGeometry relative="1" as="geometry" />
        </mxCell>
        <mxCell id="6fTI-SqCHsq5oNUSL6ju-87" value="Full_Name" style="ellipse;whiteSpace=wrap;html=1;rounded=0;" vertex="1" parent="6fTI-SqCHsq5oNUSL6ju-133">
          <mxGeometry x="310" y="150" width="80" height="40" as="geometry" />
        </mxCell>
        <mxCell id="6fTI-SqCHsq5oNUSL6ju-88" value="" style="edgeStyle=none;rounded=0;orthogonalLoop=1;jettySize=auto;html=1;fontSize=10;startFill=1;endArrow=none;endFill=0;" edge="1" parent="6fTI-SqCHsq5oNUSL6ju-133" source="Fxmti2o_5BGem4VC5T3a-1" target="6fTI-SqCHsq5oNUSL6ju-87">
          <mxGeometry relative="1" as="geometry" />
        </mxCell>
        <mxCell id="6fTI-SqCHsq5oNUSL6ju-89" value="Name" style="ellipse;whiteSpace=wrap;html=1;rounded=0;shadow=0;sketch=0;fontSize=10;" vertex="1" parent="6fTI-SqCHsq5oNUSL6ju-133">
          <mxGeometry x="260" y="205" width="80" height="40" as="geometry" />
        </mxCell>
        <mxCell id="6fTI-SqCHsq5oNUSL6ju-90" style="edgeStyle=none;rounded=0;orthogonalLoop=1;jettySize=auto;html=1;exitX=0;exitY=1;exitDx=0;exitDy=0;fontSize=10;startFill=1;endArrow=none;endFill=0;" edge="1" parent="6fTI-SqCHsq5oNUSL6ju-133" source="6fTI-SqCHsq5oNUSL6ju-87" target="6fTI-SqCHsq5oNUSL6ju-89">
          <mxGeometry relative="1" as="geometry" />
        </mxCell>
        <mxCell id="6fTI-SqCHsq5oNUSL6ju-91" value="Surname" style="ellipse;whiteSpace=wrap;html=1;rounded=0;shadow=0;sketch=0;fontSize=10;" vertex="1" parent="6fTI-SqCHsq5oNUSL6ju-133">
          <mxGeometry x="365" y="205" width="80" height="40" as="geometry" />
        </mxCell>
        <mxCell id="6fTI-SqCHsq5oNUSL6ju-92" style="edgeStyle=none;rounded=0;orthogonalLoop=1;jettySize=auto;html=1;exitX=1;exitY=1;exitDx=0;exitDy=0;fontSize=10;startFill=1;endArrow=none;endFill=0;" edge="1" parent="6fTI-SqCHsq5oNUSL6ju-133" source="6fTI-SqCHsq5oNUSL6ju-87" target="6fTI-SqCHsq5oNUSL6ju-91">
          <mxGeometry relative="1" as="geometry" />
        </mxCell>
        <mxCell id="6fTI-SqCHsq5oNUSL6ju-93" value="Father_Name" style="ellipse;whiteSpace=wrap;html=1;rounded=0;shadow=0;sketch=0;fontSize=10;" vertex="1" parent="6fTI-SqCHsq5oNUSL6ju-133">
          <mxGeometry x="410" y="150" width="80" height="40" as="geometry" />
        </mxCell>
        <mxCell id="6fTI-SqCHsq5oNUSL6ju-94" style="edgeStyle=none;rounded=0;orthogonalLoop=1;jettySize=auto;html=1;exitX=1;exitY=0.5;exitDx=0;exitDy=0;fontSize=10;startFill=1;endArrow=none;endFill=0;" edge="1" parent="6fTI-SqCHsq5oNUSL6ju-133" source="6fTI-SqCHsq5oNUSL6ju-87" target="6fTI-SqCHsq5oNUSL6ju-93">
          <mxGeometry relative="1" as="geometry" />
        </mxCell>
        <mxCell id="6fTI-SqCHsq5oNUSL6ju-134" value="" style="group;rotation=-90;" vertex="1" connectable="0" parent="1">
          <mxGeometry x="62.5" y="242" width="355" height="200" as="geometry" />
        </mxCell>
        <mxCell id="6fTI-SqCHsq5oNUSL6ju-108" value="Storage" style="rounded=0;whiteSpace=wrap;html=1;rotation=0;" vertex="1" parent="6fTI-SqCHsq5oNUSL6ju-134">
          <mxGeometry x="125" y="205" width="105" height="40" as="geometry" />
        </mxCell>
        <mxCell id="6fTI-SqCHsq5oNUSL6ju-138" style="edgeStyle=none;rounded=0;orthogonalLoop=1;jettySize=auto;html=1;exitX=0.5;exitY=1;exitDx=0;exitDy=0;labelBackgroundColor=none;strokeColor=#000000;fontSize=12;startFill=1;endArrow=none;endFill=0;" edge="1" parent="6fTI-SqCHsq5oNUSL6ju-134" source="6fTI-SqCHsq5oNUSL6ju-112" target="6fTI-SqCHsq5oNUSL6ju-108">
          <mxGeometry relative="1" as="geometry" />
        </mxCell>
        <mxCell id="6fTI-SqCHsq5oNUSL6ju-112" value="&lt;font style=&quot;font-size: 12px;&quot;&gt;SID&lt;/font&gt;" style="ellipse;whiteSpace=wrap;html=1;rounded=0;shadow=0;sketch=0;fontSize=10;rotation=0;" vertex="1" parent="6fTI-SqCHsq5oNUSL6ju-134">
          <mxGeometry x="58" y="141" width="80" height="40" as="geometry" />
        </mxCell>
        <mxCell id="6fTI-SqCHsq5oNUSL6ju-137" style="edgeStyle=none;rounded=0;orthogonalLoop=1;jettySize=auto;html=1;exitX=0.5;exitY=1;exitDx=0;exitDy=0;entryX=0.5;entryY=0;entryDx=0;entryDy=0;labelBackgroundColor=none;strokeColor=#000000;fontSize=12;startFill=1;endArrow=none;endFill=0;" edge="1" parent="6fTI-SqCHsq5oNUSL6ju-134" source="6fTI-SqCHsq5oNUSL6ju-113" target="6fTI-SqCHsq5oNUSL6ju-108">
          <mxGeometry relative="1" as="geometry" />
        </mxCell>
        <mxCell id="6fTI-SqCHsq5oNUSL6ju-113" value="Address" style="ellipse;whiteSpace=wrap;html=1;rounded=0;rotation=0;" vertex="1" parent="6fTI-SqCHsq5oNUSL6ju-134">
          <mxGeometry x="138" y="58" width="80" height="45" as="geometry" />
        </mxCell>
        <mxCell id="6fTI-SqCHsq5oNUSL6ju-114" value="City" style="ellipse;whiteSpace=wrap;html=1;rounded=0;rotation=0;" vertex="1" parent="6fTI-SqCHsq5oNUSL6ju-134">
          <mxGeometry x="56" y="10" width="80" height="37.5" as="geometry" />
        </mxCell>
        <mxCell id="6fTI-SqCHsq5oNUSL6ju-115" value="" style="rounded=0;orthogonalLoop=1;jettySize=auto;html=1;fontSize=10;endArrow=none;endFill=0;" edge="1" parent="6fTI-SqCHsq5oNUSL6ju-134" source="6fTI-SqCHsq5oNUSL6ju-113" target="6fTI-SqCHsq5oNUSL6ju-114">
          <mxGeometry relative="1" as="geometry" />
        </mxCell>
        <mxCell id="6fTI-SqCHsq5oNUSL6ju-116" value="Number" style="ellipse;whiteSpace=wrap;html=1;rounded=0;rotation=0;" vertex="1" parent="6fTI-SqCHsq5oNUSL6ju-134">
          <mxGeometry x="138" y="-60" width="80" height="45" as="geometry" />
        </mxCell>
        <mxCell id="6fTI-SqCHsq5oNUSL6ju-117" value="" style="rounded=0;orthogonalLoop=1;jettySize=auto;html=1;fontSize=10;endArrow=none;endFill=0;" edge="1" parent="6fTI-SqCHsq5oNUSL6ju-134" source="6fTI-SqCHsq5oNUSL6ju-113" target="6fTI-SqCHsq5oNUSL6ju-116">
          <mxGeometry relative="1" as="geometry" />
        </mxCell>
        <mxCell id="6fTI-SqCHsq5oNUSL6ju-140" style="edgeStyle=none;rounded=0;orthogonalLoop=1;jettySize=auto;html=1;exitX=0;exitY=1;exitDx=0;exitDy=0;entryX=1;entryY=0;entryDx=0;entryDy=0;labelBackgroundColor=none;strokeColor=#000000;fontSize=12;startFill=1;endArrow=none;endFill=0;" edge="1" parent="6fTI-SqCHsq5oNUSL6ju-134" source="6fTI-SqCHsq5oNUSL6ju-118" target="6fTI-SqCHsq5oNUSL6ju-113">
          <mxGeometry relative="1" as="geometry" />
        </mxCell>
        <mxCell id="6fTI-SqCHsq5oNUSL6ju-118" value="Postal_Code" style="ellipse;whiteSpace=wrap;html=1;rounded=0;rotation=0;" vertex="1" parent="6fTI-SqCHsq5oNUSL6ju-134">
          <mxGeometry x="218" y="6.25" width="80" height="45" as="geometry" />
        </mxCell>
        <mxCell id="6fTI-SqCHsq5oNUSL6ju-139" style="edgeStyle=none;rounded=0;orthogonalLoop=1;jettySize=auto;html=1;exitX=0.5;exitY=1;exitDx=0;exitDy=0;entryX=0.75;entryY=0;entryDx=0;entryDy=0;labelBackgroundColor=none;strokeColor=#000000;fontSize=12;startFill=1;endArrow=none;endFill=0;" edge="1" parent="6fTI-SqCHsq5oNUSL6ju-134" source="6fTI-SqCHsq5oNUSL6ju-127" target="6fTI-SqCHsq5oNUSL6ju-108">
          <mxGeometry relative="1" as="geometry" />
        </mxCell>
        <mxCell id="6fTI-SqCHsq5oNUSL6ju-127" value="&lt;font style=&quot;font-size: 12px;&quot;&gt;Phone&lt;/font&gt;" style="ellipse;whiteSpace=wrap;html=1;rounded=0;shadow=0;sketch=0;fontSize=10;rotation=0;" vertex="1" parent="6fTI-SqCHsq5oNUSL6ju-134">
          <mxGeometry x="207" y="139.5" width="77" height="43" as="geometry" />
        </mxCell>
        <mxCell id="6fTI-SqCHsq5oNUSL6ju-141" value="1" style="edgeStyle=none;rounded=0;orthogonalLoop=1;jettySize=auto;html=1;exitX=0.5;exitY=1;exitDx=0;exitDy=0;entryX=0.5;entryY=0;entryDx=0;entryDy=0;labelBackgroundColor=none;strokeColor=#000000;fontSize=12;startFill=1;endArrow=none;endFill=0;" edge="1" parent="1" source="6fTI-SqCHsq5oNUSL6ju-108" target="6fTI-SqCHsq5oNUSL6ju-129">
          <mxGeometry y="-9" relative="1" as="geometry">
            <mxPoint as="offset" />
          </mxGeometry>
        </mxCell>
        <mxCell id="6fTI-SqCHsq5oNUSL6ju-144" value="" style="edgeStyle=none;rounded=0;orthogonalLoop=1;jettySize=auto;html=1;labelBackgroundColor=none;strokeColor=#000000;fontSize=12;startFill=1;endArrow=none;endFill=0;" edge="1" parent="1" source="6fTI-SqCHsq5oNUSL6ju-142" target="6fTI-SqCHsq5oNUSL6ju-143">
          <mxGeometry relative="1" as="geometry" />
        </mxCell>
        <mxCell id="6fTI-SqCHsq5oNUSL6ju-142" value="Shopping_Cart" style="rounded=0;whiteSpace=wrap;html=1;" vertex="1" parent="1">
          <mxGeometry x="814" y="440" width="105" height="40" as="geometry" />
        </mxCell>
        <mxCell id="6fTI-SqCHsq5oNUSL6ju-143" value="&lt;u&gt;SID&lt;/u&gt;" style="ellipse;whiteSpace=wrap;html=1;rounded=0;" vertex="1" parent="1">
          <mxGeometry x="985" y="438.5" width="86.5" height="43" as="geometry" />
        </mxCell>
        <mxCell id="6fTI-SqCHsq5oNUSL6ju-147" value="" style="group" vertex="1" connectable="0" parent="1">
          <mxGeometry x="-121" y="847" width="602" height="265" as="geometry" />
        </mxCell>
        <mxCell id="6fTI-SqCHsq5oNUSL6ju-105" value="" style="group" vertex="1" connectable="0" parent="6fTI-SqCHsq5oNUSL6ju-147">
          <mxGeometry width="478.75" height="265" as="geometry" />
        </mxCell>
        <mxCell id="6fTI-SqCHsq5oNUSL6ju-64" value="Publisher" style="rounded=0;whiteSpace=wrap;html=1;" vertex="1" parent="6fTI-SqCHsq5oNUSL6ju-105">
          <mxGeometry x="306" y="132.5" width="105" height="40" as="geometry" />
        </mxCell>
        <mxCell id="6fTI-SqCHsq5oNUSL6ju-73" value="URL" style="ellipse;whiteSpace=wrap;html=1;rounded=0;" vertex="1" parent="6fTI-SqCHsq5oNUSL6ju-105">
          <mxGeometry x="323.75" y="225" width="77.5" height="40" as="geometry" />
        </mxCell>
        <mxCell id="6fTI-SqCHsq5oNUSL6ju-63" value="" style="edgeStyle=none;rounded=0;orthogonalLoop=1;jettySize=auto;html=1;fontSize=12;startFill=1;endArrow=none;endFill=0;" edge="1" parent="6fTI-SqCHsq5oNUSL6ju-105" source="6fTI-SqCHsq5oNUSL6ju-64" target="6fTI-SqCHsq5oNUSL6ju-73">
          <mxGeometry relative="1" as="geometry" />
        </mxCell>
        <mxCell id="6fTI-SqCHsq5oNUSL6ju-74" style="rounded=0;orthogonalLoop=1;jettySize=auto;html=1;exitX=0;exitY=0.5;exitDx=0;exitDy=0;entryX=1;entryY=0.5;entryDx=0;entryDy=0;fontSize=10;endArrow=none;endFill=0;" edge="1" parent="6fTI-SqCHsq5oNUSL6ju-105" target="6fTI-SqCHsq5oNUSL6ju-82" source="6fTI-SqCHsq5oNUSL6ju-64">
          <mxGeometry relative="1" as="geometry">
            <mxPoint x="255" y="120" as="sourcePoint" />
          </mxGeometry>
        </mxCell>
        <mxCell id="6fTI-SqCHsq5oNUSL6ju-76" value="" style="group" vertex="1" connectable="0" parent="6fTI-SqCHsq5oNUSL6ju-105">
          <mxGeometry x="190" y="215" width="80" height="50" as="geometry" />
        </mxCell>
        <mxCell id="6fTI-SqCHsq5oNUSL6ju-77" value="Phone" style="ellipse;whiteSpace=wrap;html=1;perimeterSpacing=0;shadow=0;perimeter=none;" vertex="1" parent="6fTI-SqCHsq5oNUSL6ju-76">
          <mxGeometry width="80" height="50" as="geometry" />
        </mxCell>
        <mxCell id="6fTI-SqCHsq5oNUSL6ju-78" value="Phone" style="ellipse;whiteSpace=wrap;html=1;perimeterSpacing=0;shadow=0;perimeter=none;" vertex="1" parent="6fTI-SqCHsq5oNUSL6ju-76">
          <mxGeometry x="5" y="5" width="70" height="40" as="geometry" />
        </mxCell>
        <mxCell id="6fTI-SqCHsq5oNUSL6ju-96" style="edgeStyle=none;rounded=0;orthogonalLoop=1;jettySize=auto;html=1;exitX=0.25;exitY=1;exitDx=0;exitDy=0;entryX=0.625;entryY=0;entryDx=0;entryDy=0;entryPerimeter=0;fontSize=10;startFill=1;endArrow=none;endFill=0;" edge="1" parent="6fTI-SqCHsq5oNUSL6ju-105" source="6fTI-SqCHsq5oNUSL6ju-64" target="6fTI-SqCHsq5oNUSL6ju-77">
          <mxGeometry relative="1" as="geometry" />
        </mxCell>
        <mxCell id="6fTI-SqCHsq5oNUSL6ju-82" value="Address" style="ellipse;whiteSpace=wrap;html=1;rounded=0;" vertex="1" parent="6fTI-SqCHsq5oNUSL6ju-105">
          <mxGeometry x="165" y="130" width="80" height="45" as="geometry" />
        </mxCell>
        <mxCell id="6fTI-SqCHsq5oNUSL6ju-83" value="City" style="ellipse;whiteSpace=wrap;html=1;rounded=0;" vertex="1" parent="6fTI-SqCHsq5oNUSL6ju-105">
          <mxGeometry x="70" y="70" width="80" height="37.5" as="geometry" />
        </mxCell>
        <mxCell id="6fTI-SqCHsq5oNUSL6ju-79" value="" style="rounded=0;orthogonalLoop=1;jettySize=auto;html=1;fontSize=10;endArrow=none;endFill=0;" edge="1" parent="6fTI-SqCHsq5oNUSL6ju-105" source="6fTI-SqCHsq5oNUSL6ju-82" target="6fTI-SqCHsq5oNUSL6ju-83">
          <mxGeometry relative="1" as="geometry" />
        </mxCell>
        <mxCell id="6fTI-SqCHsq5oNUSL6ju-84" value="Number" style="ellipse;whiteSpace=wrap;html=1;rounded=0;" vertex="1" parent="6fTI-SqCHsq5oNUSL6ju-105">
          <mxGeometry y="130" width="80" height="45" as="geometry" />
        </mxCell>
        <mxCell id="6fTI-SqCHsq5oNUSL6ju-80" value="" style="rounded=0;orthogonalLoop=1;jettySize=auto;html=1;fontSize=10;endArrow=none;endFill=0;" edge="1" parent="6fTI-SqCHsq5oNUSL6ju-105" source="6fTI-SqCHsq5oNUSL6ju-82" target="6fTI-SqCHsq5oNUSL6ju-84">
          <mxGeometry relative="1" as="geometry" />
        </mxCell>
        <mxCell id="6fTI-SqCHsq5oNUSL6ju-85" value="Postal_Code" style="ellipse;whiteSpace=wrap;html=1;rounded=0;" vertex="1" parent="6fTI-SqCHsq5oNUSL6ju-105">
          <mxGeometry x="70" y="190" width="80" height="45" as="geometry" />
        </mxCell>
        <mxCell id="6fTI-SqCHsq5oNUSL6ju-81" style="rounded=0;orthogonalLoop=1;jettySize=auto;html=1;exitX=0;exitY=1;exitDx=0;exitDy=0;entryX=0.5;entryY=0;entryDx=0;entryDy=0;fontSize=10;endArrow=none;endFill=0;" edge="1" parent="6fTI-SqCHsq5oNUSL6ju-105" source="6fTI-SqCHsq5oNUSL6ju-82" target="6fTI-SqCHsq5oNUSL6ju-85">
          <mxGeometry relative="1" as="geometry" />
        </mxCell>
        <mxCell id="6fTI-SqCHsq5oNUSL6ju-101" value="Full_Name" style="ellipse;whiteSpace=wrap;html=1;" vertex="1" parent="6fTI-SqCHsq5oNUSL6ju-147">
          <mxGeometry x="462" y="132.5" width="70" height="40" as="geometry" />
        </mxCell>
        <mxCell id="6fTI-SqCHsq5oNUSL6ju-99" style="edgeStyle=none;rounded=0;orthogonalLoop=1;jettySize=auto;html=1;exitX=0;exitY=0;exitDx=0;exitDy=0;fontSize=12;startFill=1;endArrow=none;endFill=0;" edge="1" parent="6fTI-SqCHsq5oNUSL6ju-147" source="6fTI-SqCHsq5oNUSL6ju-101" target="6fTI-SqCHsq5oNUSL6ju-102">
          <mxGeometry relative="1" as="geometry" />
        </mxCell>
        <mxCell id="6fTI-SqCHsq5oNUSL6ju-103" value="Surname" style="ellipse;whiteSpace=wrap;html=1;shadow=0;sketch=0;fontSize=12;" vertex="1" parent="6fTI-SqCHsq5oNUSL6ju-147">
          <mxGeometry x="532" y="70" width="70" height="40" as="geometry" />
        </mxCell>
        <mxCell id="6fTI-SqCHsq5oNUSL6ju-100" style="edgeStyle=none;rounded=0;orthogonalLoop=1;jettySize=auto;html=1;exitX=1;exitY=0;exitDx=0;exitDy=0;fontSize=12;startFill=1;endArrow=none;endFill=0;" edge="1" parent="6fTI-SqCHsq5oNUSL6ju-147" source="6fTI-SqCHsq5oNUSL6ju-101" target="6fTI-SqCHsq5oNUSL6ju-103">
          <mxGeometry relative="1" as="geometry" />
        </mxCell>
        <mxCell id="6fTI-SqCHsq5oNUSL6ju-102" value="Name" style="ellipse;whiteSpace=wrap;html=1;shadow=0;sketch=0;fontSize=12;" vertex="1" parent="6fTI-SqCHsq5oNUSL6ju-147">
          <mxGeometry x="427" y="70" width="70" height="40" as="geometry" />
        </mxCell>
        <mxCell id="6fTI-SqCHsq5oNUSL6ju-145" style="edgeStyle=none;rounded=0;orthogonalLoop=1;jettySize=auto;html=1;exitX=1;exitY=0.5;exitDx=0;exitDy=0;entryX=0;entryY=0.5;entryDx=0;entryDy=0;labelBackgroundColor=none;strokeColor=#000000;fontSize=12;startFill=1;endArrow=none;endFill=0;" edge="1" parent="6fTI-SqCHsq5oNUSL6ju-147" source="6fTI-SqCHsq5oNUSL6ju-64" target="6fTI-SqCHsq5oNUSL6ju-101">
          <mxGeometry relative="1" as="geometry" />
        </mxCell>
        <mxCell id="6fTI-SqCHsq5oNUSL6ju-67" value="&lt;u&gt;PID&lt;/u&gt;" style="ellipse;whiteSpace=wrap;html=1;" vertex="1" parent="6fTI-SqCHsq5oNUSL6ju-147">
          <mxGeometry x="462" y="225" width="66" height="39" as="geometry" />
        </mxCell>
        <mxCell id="6fTI-SqCHsq5oNUSL6ju-146" style="edgeStyle=none;rounded=0;orthogonalLoop=1;jettySize=auto;html=1;exitX=0.75;exitY=1;exitDx=0;exitDy=0;entryX=0;entryY=0.5;entryDx=0;entryDy=0;labelBackgroundColor=none;strokeColor=#000000;fontSize=12;startFill=1;endArrow=none;endFill=0;" edge="1" parent="6fTI-SqCHsq5oNUSL6ju-147" source="6fTI-SqCHsq5oNUSL6ju-64" target="6fTI-SqCHsq5oNUSL6ju-67">
          <mxGeometry relative="1" as="geometry" />
        </mxCell>
        <mxCell id="6fTI-SqCHsq5oNUSL6ju-148" value="1" style="edgeStyle=none;rounded=0;orthogonalLoop=1;jettySize=auto;html=1;exitX=0.5;exitY=1;exitDx=0;exitDy=0;entryX=0.5;entryY=0;entryDx=0;entryDy=0;labelBackgroundColor=none;strokeColor=#000000;fontSize=12;startFill=1;endArrow=none;endFill=0;" edge="1" parent="1" source="6fTI-SqCHsq5oNUSL6ju-55" target="6fTI-SqCHsq5oNUSL6ju-64">
          <mxGeometry x="0.0262" y="8" relative="1" as="geometry">
            <mxPoint as="offset" />
          </mxGeometry>
        </mxCell>
      </root>
    </mxGraphModel>
  </diagram>
</mxfile>
